# xmcd CD database file
#
# Track frame offsets:
#	150
#	12401
#	23695
#	37127
#	50903
#	61901
#	67395
#	77727
#	88894
#	101873
#	112203
#	122652
#	133353
#	144376
#	154978
#	165147
#	176236
#	186816
#	195486
#	207576
#	223124
#	236177
#	248228
#	261151
#	275672
#	287011
#
# Disc length: 4031 seconds
#
# Revision: 0
# Processed by: cddbd v1.5.1PL0 Copyright (c) Steve Scherf et al.
# Submitted via: CDex 1.51
#
DISCID=a30fbd1a
DTITLE=Various Artist - Frenesi De Merengue
DYEAR=1999
DGENRE=Merengue
TTITLE0=Suavemente
TTITLE1=Nadie De Muere
TTITLE2=Licor
TTITLE3=Corazone Encadenado
TTITLE4=No Puedo Olvidarla
TTITLE5=La Paleta
TTITLE6=El Chiclet
TTITLE7=Perdoname, Olvidalo
TTITLE8=No Se Olvidar
TTITLE9=Ayer Te Llame
TTITLE10=Por Que Tanto Problema
TTITLE11=El Disco Ravao
TTITLE12=La Tanga Transparente
TTITLE13=Refran Del Siglo
TTITLE14=Sol De Verano
TTITLE15=Lloran Las Rosas
TTITLE16=La Bomba
TTITLE17=Mujer Latina
TTITLE18=Corazon Prohibido
TTITLE19=Peguemela Pero No Me Deje
TTITLE20=Dame De Eso
TTITLE21=Contigo Nena
TTITLE22=1 2 3
TTITLE23=Levantando Lad Manos
TTITLE24=Esa Mujer Es Fuego
TTITLE25=Mi Gente
EXTD=YEAR: 1999
EXTT0=
EXTT1=
EXTT2=
EXTT3=
EXTT4=
EXTT5=
EXTT6=
EXTT7=
EXTT8=
EXTT9=
EXTT10=
EXTT11=
EXTT12=
EXTT13=
EXTT14=
EXTT15=
EXTT16=
EXTT17=
EXTT18=
EXTT19=
EXTT20=
EXTT21=
EXTT22=
EXTT23=
EXTT24=
EXTT25=
PLAYORDER=
